<?xml version="1.0" encoding="utf-8"?>
<!-- Generator: Adobe Illustrator 28.0.0, SVG Export Plug-In . SVG Version: 6.00 Build 0)  -->
<svg version="1.1" id="Слой_1" xmlns="http://www.w3.org/2000/svg" xmlns:xlink="http://www.w3.org/1999/xlink" x="0px" y="0px"
	 viewBox="0 0 595.28 841.89" style="enable-background:new 0 0 595.28 841.89;" xml:space="preserve">
<style type="text/css">
	.st0{fill:#E5E5E4;}
	.st1{fill:#FFFFFF;}
	.st2{fill:none;stroke:#4E4D4D;stroke-miterlimit:10;}
	.st3{fill:#F1F1F1;}
	.st4{fill:#020203;}
	.st5{font-family:'MyriadPro-Regular';}
	.st6{font-size:24px;}
	.st7{fill:none;stroke:#020203;stroke-width:0.75;stroke-miterlimit:10;}
	.st8{fill:#808181;}
	.st9{font-family:'ArialMT';}
	.st10{font-size:4.2435px;}
	.st11{fill:#343434;}
	.st12{font-size:6.9656px;}
	.st13{fill:#4E4D4D;}
	.st14{font-family:'Arial-Black';}
	.st15{fill:#90CFF3;}
	.st16{fill:#91CFF3;}
	.st17{fill:#EE7AAA;}
	.st18{fill:none;stroke:#91CFF3;stroke-width:2;stroke-miterlimit:10;}
	.st19{fill:none;stroke:#EE7AAA;stroke-width:2;stroke-miterlimit:10;}
	.st20{fill:none;stroke:#020203;stroke-miterlimit:10;}
	.st21{fill:#FFFFFF;stroke:#020203;stroke-miterlimit:10;}
</style>
<g>
	<g>
		<path class="st0" d="M374.44,605.66H349.2c-15.12,0-27.37-12.26-27.37-27.37v-20.07c0-15.12,12.26-27.37,27.37-27.37h25.24
			c15.12,0,27.37,12.26,27.37,27.37v20.07C401.82,593.4,389.56,605.66,374.44,605.66z"/>
	</g>
	<g>
		<g>
			<circle class="st1" cx="341.86" cy="558.07" r="7.83"/>
			<circle class="st1" cx="341.86" cy="578.42" r="7.83"/>
		</g>
		<circle class="st1" cx="381.78" cy="568.25" r="7.83"/>
		<g>
			<line class="st2" x1="361.82" y1="568.25" x2="369.65" y2="568.25"/>
			<line class="st2" x1="361.43" y1="578.03" x2="361.43" y2="558.47"/>
			<line class="st2" x1="354" y1="558.86" x2="361.82" y2="558.86"/>
			<line class="st2" x1="354" y1="577.64" x2="361.82" y2="577.64"/>
		</g>
	</g>
	<g>
		<path class="st3" d="M294.46,605.66h-95.53c-15.12,0-27.37-12.26-27.37-27.37v-20.07c0-15.12,12.26-27.37,27.37-27.37h95.53
			c15.12,0,27.37,12.26,27.37,27.37v20.07C321.83,593.4,309.57,605.66,294.46,605.66z"/>
	</g>
	<g>
		<text transform="matrix(1 0 0 1 205.7365 575.2928)" class="st4 st5 st6">Związek</text>
	</g>
	<g>
		<path class="st0" d="M374.44,705.02H349.2c-15.12,0-27.37-12.26-27.37-27.37v-20.07c0-15.12,12.26-27.37,27.37-27.37h25.24
			c15.12,0,27.37,12.26,27.37,27.37v20.07C401.82,692.77,389.56,705.02,374.44,705.02z"/>
	</g>
	<g>
		<g>
			<circle class="st1" cx="341.86" cy="657.44" r="7.83"/>
			<circle class="st1" cx="341.86" cy="677.79" r="7.83"/>
		</g>
		<circle class="st1" cx="381.78" cy="667.61" r="7.83"/>
		<g>
			<line class="st2" x1="361.82" y1="667.61" x2="369.65" y2="667.61"/>
			<line class="st2" x1="361.43" y1="677.4" x2="361.43" y2="657.83"/>
			<line class="st2" x1="354" y1="658.22" x2="361.82" y2="658.22"/>
			<line class="st2" x1="354" y1="677.01" x2="361.82" y2="677.01"/>
		</g>
	</g>
	<g>
		<path class="st3" d="M294.46,705.02h-95.53c-15.12,0-27.37-12.26-27.37-27.37v-20.07c0-15.12,12.26-27.37,27.37-27.37h95.53
			c15.12,0,27.37,12.26,27.37,27.37v20.07C321.83,692.77,309.57,705.02,294.46,705.02z"/>
	</g>
	<g>
		<text transform="matrix(1 0 0 1 193.0287 674.6586)" class="st4 st5 st6">Połączenie</text>
	</g>
	<g>
		<path class="st0" d="M374.44,804.39H349.2c-15.12,0-27.37-12.26-27.37-27.37v-20.07c0-15.12,12.26-27.37,27.37-27.37h25.24
			c15.12,0,27.37,12.26,27.37,27.37v20.07C401.82,792.13,389.56,804.39,374.44,804.39z"/>
	</g>
	<g>
		<circle class="st1" cx="361.82" cy="766.98" r="7.83"/>
	</g>
	<g>
		<path class="st3" d="M294.46,804.39h-95.53c-15.12,0-27.37-12.26-27.37-27.37v-20.07c0-15.12,12.26-27.37,27.37-27.37h95.53
			c15.12,0,27.37,12.26,27.37,27.37v20.07C321.83,792.13,309.57,804.39,294.46,804.39z"/>
	</g>
	<g>
		<text transform="matrix(1 0 0 1 197.3129 774.0243)" class="st4 st5 st6">Harmonia</text>
	</g>
</g>
<g>
	<g>
		<g>
			<path class="st7" d="M444.38,83.72L309.89,28.01c-7.96-3.3-16.91-3.3-24.88,0L150.52,83.72c-7.96,3.3-14.29,9.63-17.59,17.59
				L77.22,235.81c-3.3,7.96-3.3,16.91,0,24.88l55.71,134.49c3.3,7.96,9.63,14.29,17.59,17.59l134.49,55.71
				c7.96,3.3,16.91,3.3,24.88,0l134.49-55.71c7.96-3.3,14.29-9.63,17.59-17.59l55.71-134.49c3.3-7.96,3.3-16.91,0-24.88
				l-55.71-134.49C458.67,93.35,452.35,87.02,444.38,83.72z"/>
			<g>
				<g>
					
						<ellipse transform="matrix(0.3827 -0.9239 0.9239 0.3827 -110.4607 204.689)" class="st4" cx="97.94" cy="185" rx="2.17" ry="2.17"/>
					
						<ellipse transform="matrix(0.3827 -0.9239 0.9239 0.3827 -90.9294 200.804)" class="st4" cx="104.8" cy="168.44" rx="3.26" ry="3.26"/>
					
						<ellipse transform="matrix(0.3827 -0.9239 0.9239 0.3827 -129.9919 208.574)" class="st4" cx="91.08" cy="201.56" rx="2.17" ry="2.17"/>
					
						<ellipse transform="matrix(0.3827 -0.9239 0.9239 0.3827 -149.5232 212.459)" class="st4" cx="84.22" cy="218.12" rx="2.17" ry="2.17"/>
					
						<ellipse transform="matrix(0.3827 -0.9239 0.9239 0.3827 -32.3357 189.149)" class="st4" cx="125.37" cy="118.77" rx="2.17" ry="2.17"/>
					
						<ellipse transform="matrix(0.3827 -0.9239 0.9239 0.3827 -51.8669 193.034)" class="st4" cx="118.51" cy="135.33" rx="2.17" ry="2.17"/>
					
						<ellipse transform="matrix(0.3827 -0.9239 0.9239 0.3827 -71.3982 196.919)" class="st4" cx="111.66" cy="151.89" rx="2.17" ry="2.17"/>
				</g>
				<g>
					
						<ellipse transform="matrix(0.3827 -0.9239 0.9239 0.3827 -20.0556 659.1859)" class="st4" cx="483.24" cy="344.6" rx="2.17" ry="2.17"/>
					
						<ellipse transform="matrix(0.3827 -0.9239 0.9239 0.3827 -0.5244 655.3008)" class="st4" cx="490.1" cy="328.04" rx="3.26" ry="3.26"/>
					
						<ellipse transform="matrix(0.3827 -0.9239 0.9239 0.3827 -39.5869 663.0709)" class="st4" cx="476.38" cy="361.16" rx="2.17" ry="2.17"/>
					
						<ellipse transform="matrix(0.3827 -0.9239 0.9239 0.3827 -59.1181 666.9559)" class="st4" cx="469.53" cy="377.72" rx="2.17" ry="2.17"/>
					
						<ellipse transform="matrix(0.3827 -0.9239 0.9239 0.3827 58.0694 643.6459)" class="st4" cx="510.68" cy="278.37" rx="2.17" ry="2.17"/>
					
						<ellipse transform="matrix(0.3827 -0.9239 0.9239 0.3827 38.5381 647.5309)" class="st4" cx="503.82" cy="294.93" rx="2.17" ry="2.17"/>
					
						<ellipse transform="matrix(0.3827 -0.9239 0.9239 0.3827 19.0069 651.4159)" class="st4" cx="496.96" cy="311.49" rx="2.17" ry="2.17"/>
				</g>
				<g>
					
						<ellipse transform="matrix(0.9239 -0.3827 0.3827 0.9239 -123.3736 68.9601)" class="st4" cx="111.66" cy="344.6" rx="2.17" ry="2.17"/>
					
						<ellipse transform="matrix(0.9239 -0.3827 0.3827 0.9239 -117.5593 65.075)" class="st4" cx="104.8" cy="328.04" rx="3.26" ry="3.26"/>
					
						<ellipse transform="matrix(0.9239 -0.3827 0.3827 0.9239 -129.188 72.8451)" class="st4" cx="118.51" cy="361.16" rx="2.17" ry="2.17"/>
					
						<ellipse transform="matrix(0.9239 -0.3827 0.3827 0.9239 -135.0023 76.7301)" class="st4" cx="125.37" cy="377.72" rx="2.17" ry="2.17"/>
					
						<ellipse transform="matrix(0.9239 -0.3827 0.3827 0.9239 -100.1163 53.42)" class="st4" cx="84.22" cy="278.37" rx="2.17" ry="2.17"/>
					
						<ellipse transform="matrix(0.9239 -0.3827 0.3827 0.9239 -105.9307 57.305)" class="st4" cx="91.08" cy="294.93" rx="2.17" ry="2.17"/>
					
						<ellipse transform="matrix(0.9239 -0.3827 0.3827 0.9239 -111.745 61.19)" class="st4" cx="97.94" cy="311.49" rx="2.17" ry="2.17"/>
				</g>
				<g>
					
						<ellipse transform="matrix(0.9239 -0.3827 0.3827 0.9239 -32.9686 204.2608)" class="st4" cx="496.96" cy="185" rx="2.17" ry="2.17"/>
					
						<ellipse transform="matrix(0.9239 -0.3827 0.3827 0.9239 -27.1543 200.3758)" class="st4" cx="490.1" cy="168.44" rx="3.26" ry="3.26"/>
					
						<ellipse transform="matrix(0.9239 -0.3827 0.3827 0.9239 -38.7829 208.1458)" class="st4" cx="503.82" cy="201.56" rx="2.17" ry="2.17"/>
					
						<ellipse transform="matrix(0.9239 -0.3827 0.3827 0.9239 -44.5972 212.0308)" class="st4" cx="510.68" cy="218.12" rx="2.17" ry="2.17"/>
					
						<ellipse transform="matrix(0.9239 -0.3827 0.3827 0.9239 -9.7113 188.7207)" class="st4" cx="469.53" cy="118.77" rx="2.17" ry="2.17"/>
					
						<ellipse transform="matrix(0.9239 -0.3827 0.3827 0.9239 -15.5256 192.6058)" class="st4" cx="476.38" cy="135.33" rx="2.17" ry="2.17"/>
					
						<ellipse transform="matrix(0.9239 -0.3827 0.3827 0.9239 -21.34 196.4908)" class="st4" cx="483.24" cy="151.89" rx="2.17" ry="2.17"/>
				</g>
				<g>
					
						<ellipse transform="matrix(0.3827 -0.9239 0.9239 0.3827 -269.0903 492.7862)" class="st4" cx="234.21" cy="447.75" rx="2.17" ry="2.17"/>
					
						<ellipse transform="matrix(0.3827 -0.9239 0.9239 0.3827 -272.9753 473.255)" class="st4" cx="217.65" cy="440.9" rx="3.26" ry="3.26"/>
					
						<ellipse transform="matrix(0.3827 -0.9239 0.9239 0.3827 -265.2053 512.3174)" class="st4" cx="250.77" cy="454.61" rx="2.17" ry="2.17"/>
					
						<ellipse transform="matrix(0.3827 -0.9239 0.9239 0.3827 -261.3203 531.8487)" class="st4" cx="267.32" cy="461.47" rx="2.17" ry="2.17"/>
					
						<ellipse transform="matrix(0.3827 -0.9239 0.9239 0.3827 -284.6303 414.6612)" class="st4" cx="167.98" cy="420.32" rx="2.17" ry="2.17"/>
					
						<ellipse transform="matrix(0.3827 -0.9239 0.9239 0.3827 -280.7453 434.1925)" class="st4" cx="184.53" cy="427.18" rx="2.17" ry="2.17"/>
					
						<ellipse transform="matrix(0.3827 -0.9239 0.9239 0.3827 -276.8603 453.7237)" class="st4" cx="201.09" cy="434.04" rx="2.17" ry="2.17"/>
				</g>
				<g>
					
						<ellipse transform="matrix(0.3827 -0.9239 0.9239 0.3827 185.4065 402.3812)" class="st4" cx="393.81" cy="62.45" rx="2.17" ry="2.17"/>
					
						<ellipse transform="matrix(0.3827 -0.9239 0.9239 0.3827 181.5215 382.8499)" class="st4" cx="377.25" cy="55.59" rx="3.26" ry="3.26"/>
					
						<ellipse transform="matrix(0.3827 -0.9239 0.9239 0.3827 189.2915 421.9124)" class="st4" cx="410.36" cy="69.31" rx="2.17" ry="2.17"/>
					
						<ellipse transform="matrix(0.3827 -0.9239 0.9239 0.3827 193.1765 441.4437)" class="st4" cx="426.92" cy="76.17" rx="2.17" ry="2.17"/>
					
						<ellipse transform="matrix(0.3827 -0.9239 0.9239 0.3827 169.8665 324.2562)" class="st4" cx="327.58" cy="35.02" rx="2.17" ry="2.17"/>
					
						<ellipse transform="matrix(0.3827 -0.9239 0.9239 0.3827 173.7515 343.7874)" class="st4" cx="344.13" cy="41.87" rx="2.17" ry="2.17"/>
					
						<ellipse transform="matrix(0.3827 -0.9239 0.9239 0.3827 177.6365 363.3187)" class="st4" cx="360.69" cy="48.73" rx="2.17" ry="2.17"/>
				</g>
				<g>
					
						<ellipse transform="matrix(0.9239 -0.3827 0.3827 0.9239 -136.1221 183.7422)" class="st4" cx="393.81" cy="434.04" rx="2.17" ry="2.17"/>
					
						<ellipse transform="matrix(0.9239 -0.3827 0.3827 0.9239 -140.0071 177.9279)" class="st4" cx="377.25" cy="440.9" rx="3.26" ry="3.26"/>
					
						<ellipse transform="matrix(0.9239 -0.3827 0.3827 0.9239 -132.2371 189.5566)" class="st4" cx="410.36" cy="427.18" rx="2.17" ry="2.17"/>
					
						<ellipse transform="matrix(0.9239 -0.3827 0.3827 0.9239 -128.3521 195.3709)" class="st4" cx="426.92" cy="420.32" rx="2.17" ry="2.17"/>
					
						<ellipse transform="matrix(0.9239 -0.3827 0.3827 0.9239 -151.6622 160.485)" class="st4" cx="327.58" cy="461.47" rx="2.17" ry="2.17"/>
					
						<ellipse transform="matrix(0.9239 -0.3827 0.3827 0.9239 -147.7772 166.2993)" class="st4" cx="344.13" cy="454.61" rx="2.17" ry="2.17"/>
					
						<ellipse transform="matrix(0.9239 -0.3827 0.3827 0.9239 -143.8922 172.1136)" class="st4" cx="360.69" cy="447.75" rx="2.17" ry="2.17"/>
				</g>
				<g>
					
						<ellipse transform="matrix(0.9239 -0.3827 0.3827 0.9239 -0.8214 93.3372)" class="st4" cx="234.21" cy="48.73" rx="2.17" ry="2.17"/>
					
						<ellipse transform="matrix(0.9239 -0.3827 0.3827 0.9239 -4.7064 87.5229)" class="st4" cx="217.65" cy="55.59" rx="3.26" ry="3.26"/>
					
						<ellipse transform="matrix(0.9239 -0.3827 0.3827 0.9239 3.0636 99.1515)" class="st4" cx="250.77" cy="41.87" rx="2.17" ry="2.17"/>
					
						<ellipse transform="matrix(0.9239 -0.3827 0.3827 0.9239 6.9486 104.9659)" class="st4" cx="267.32" cy="35.02" rx="2.17" ry="2.17"/>
					
						<ellipse transform="matrix(0.9239 -0.3827 0.3827 0.9239 -16.3615 70.0799)" class="st4" cx="167.98" cy="76.17" rx="2.17" ry="2.17"/>
					
						<ellipse transform="matrix(0.9239 -0.3827 0.3827 0.9239 -12.4765 75.8942)" class="st4" cx="184.53" cy="69.31" rx="2.17" ry="2.17"/>
					
						<ellipse transform="matrix(0.9239 -0.3827 0.3827 0.9239 -8.5914 81.7086)" class="st4" cx="201.09" cy="62.45" rx="2.17" ry="2.17"/>
				</g>
			</g>
		</g>
		<text transform="matrix(1 0 0 1 89.7268 220.6484)" class="st8 st9 st10">1-2,5</text>
		<text transform="matrix(1 0 0 1 96.554 204.1675)" class="st8 st9 st10">2,5-3,5</text>
		<text transform="matrix(1 0 0 1 103.4548 187.5083)" class="st8 st9 st10">3,5-4</text>
		<text transform="matrix(1 0 0 1 116.7449 155.4214)" class="st8 st9 st10">6-7,5</text>
		<text transform="matrix(1 0 0 1 123.988 137.937)" class="st8 st9 st10">7,5-8,5</text>
		<text transform="matrix(1 0 0 1 131.054 120.8774)" class="st8 st9 st10">8,5-9</text>
		<text transform="matrix(1 0 0 1 454.3816 126.3638)" class="st8 st9 st10">31-32,5</text>
		<text transform="matrix(1 0 0 1 457.4934 141.3345)" class="st8 st9 st10">32,5-33,5</text>
		<text transform="matrix(1 0 0 1 468.0979 158.3911)" class="st8 st9 st10">33,5-34</text>
		<text transform="matrix(1 0 0 1 462.6379 174.3472)" class="st11 st9 st12">35 LAT</text>
		<text transform="matrix(1 0 0 1 481.8152 191.5068)" class="st8 st9 st10">36-37,5</text>
		<text transform="matrix(1 0 0 1 484.9265 207.5664)" class="st8 st9 st10">37,5-38,5</text>
		<text transform="matrix(1 0 0 1 495.5339 224.6221)" class="st8 st9 st10">38,5-39</text>
		<text transform="matrix(1 0 0 1 89.1794 276.3633)" class="st8 st9 st10">78,5-79</text>
		<text transform="matrix(1 0 0 1 95.8318 292.4199)" class="st8 st9 st10">77,5-78,5</text>
		<text transform="matrix(1 0 0 1 102.8987 309.4785)" class="st8 st9 st10">76-77,5</text>
		<text transform="matrix(1 0 0 1 111.4197 325.5361)" class="st11 st9 st12">75 LAT</text>
		<text transform="matrix(1 0 0 1 116.614 342.5957)" class="st8 st9 st10">73,5-74</text>
		<text transform="matrix(1 0 0 1 123.2664 358.6523)" class="st8 st9 st10">72,5-73,5</text>
		<text transform="matrix(1 0 0 1 130.3313 375.7095)" class="st8 st9 st10">71-72,5</text>
		<text transform="matrix(1 0 0 1 109.094 172.0249)" class="st11 st9 st12">5 LAT</text>
		<text transform="matrix(1 0 0 1 484.7917 290.3901)" class="st8 st9 st10">42,5-43,5</text>
		<text transform="matrix(1 0 0 1 481.6809 306.4482)" class="st8 st9 st10">43,5-44</text>
		<text transform="matrix(1 0 0 1 462.6379 325.5381)" class="st11 st9 st12">45 LAT</text>
		<text transform="matrix(1 0 0 1 495.2302 273.7305)" class="st8 st9 st10">41-42,5</text>
		<text transform="matrix(1 0 0 1 457.3606 356.6216)" class="st8 st9 st10">47,5-48,5</text>
		<text transform="matrix(1 0 0 1 454.2449 372.6763)" class="st8 st9 st10">48,5-49</text>
		<text transform="matrix(1 0 0 1 467.7952 339.9624)" class="st8 st9 st10">46-47,5</text>
		<text transform="matrix(1 0 0 1 162.3035 84.4751)" class="st8 st9 st10">11-12,5</text>
		<text transform="matrix(1 0 0 1 176.8542 77.7163)" class="st8 st9 st10">12,5-13,5</text>
		<text transform="matrix(1 0 0 1 195.655 70.6611)" class="st8 st9 st10">13,5-14</text>
		<text transform="matrix(1 0 0 1 210.491 66.3677)" class="st11 st9 st12">15 LAT</text>
		<text transform="matrix(1 0 0 1 228.2966 57.1416)" class="st8 st9 st10">16-17,5</text>
		<text transform="matrix(1 0 0 1 242.8479 50.3794)" class="st8 st9 st10">17,5-18,5</text>
		<text transform="matrix(1 0 0 1 260.5593 43.3267)" class="st8 st9 st10">18,5-19</text>
		<text transform="matrix(1 0 0 1 320.218 455.8652)" class="st8 st9 st10">58,5-59</text>
		<text transform="matrix(1 0 0 1 332.5969 449.1074)" class="st8 st9 st10">57,5-58,5</text>
		<text transform="matrix(1 0 0 1 351.3967 442.0527)" class="st8 st9 st10">56-57,5</text>
		<text transform="matrix(1 0 0 1 359.3513 434.5771)" class="st11 st9 st12">55 LAT</text>
		<text transform="matrix(1 0 0 1 384.0364 428.5332)" class="st8 st9 st10">53,5-54</text>
		<text transform="matrix(1 0 0 1 398.5857 421.772)" class="st8 st9 st10">52,5-53,5</text>
		<text transform="matrix(1 0 0 1 417.387 414.7192)" class="st8 st9 st10">51-52,5</text>
		<text transform="matrix(1 0 0 1 318.718 43.6606)" class="st8 st9 st10">21-22,5</text>
		<text transform="matrix(1 0 0 1 334.0076 50.7285)" class="st8 st9 st10">22,5-23,5</text>
		<text transform="matrix(1 0 0 1 351.8308 57.377)" class="st8 st9 st10">23,5-24</text>
		<text transform="matrix(1 0 0 1 360.512 66.3677)" class="st11 st9 st12">25 LAT</text>
		<text transform="matrix(1 0 0 1 384.9485 71.0952)" class="st8 st9 st10">26-27,5</text>
		<text transform="matrix(1 0 0 1 400.2371 78.1606)" class="st8 st9 st10">27,5-28,5</text>
		<text transform="matrix(1 0 0 1 418.0618 84.812)" class="st8 st9 st10">28,5-29</text>
		<text transform="matrix(1 0 0 1 163.0032 415.8774)" class="st8 st9 st10">68,5-69</text>
		<text transform="matrix(1 0 0 1 177.2883 422.5264)" class="st8 st9 st10">67,5-68,5</text>
		<text transform="matrix(1 0 0 1 196.1174 429.5928)" class="st8 st9 st10">66-67,5</text>
		<text transform="matrix(1 0 0 1 213.9753 433.415)" class="st11 st9 st12">65 LAT</text>
		<text transform="matrix(1 0 0 1 229.2332 443.3135)" class="st8 st9 st10">63,5-64</text>
		<text transform="matrix(1 0 0 1 243.5212 449.9619)" class="st8 st9 st10">62,5-63,5</text>
		<text transform="matrix(1 0 0 1 261.2629 457.0273)" class="st8 st9 st10">61-62,5</text>
	</g>
	<text transform="matrix(1 0 0 1 292.9924 5.9761)"><tspan x="0" y="0" class="st13 st14 st12">20</tspan><tspan x="-2.9" y="10.18" class="st13 st14 st12">LAT</tspan></text>
	<text transform="matrix(1 0 0 1 292.9924 484.9805)"><tspan x="0" y="0" class="st13 st14 st12">60</tspan><tspan x="-2.9" y="10.18" class="st13 st14 st12">LAT</tspan></text>
	<text transform="matrix(1 0 0 1 55.8118 245.4761)"><tspan x="0" y="0" class="st13 st14 st12">0</tspan><tspan x="-5.22" y="10.18" class="st13 st14 st12">LAT</tspan></text>
	<text transform="matrix(1 0 0 1 532.4949 245.4751)"><tspan x="0" y="0" class="st13 st14 st12">40</tspan><tspan x="-2.9" y="10.18" class="st13 st14 st12">LAT</tspan></text>
	<text transform="matrix(1 0 0 1 465.0061 75.2783)"><tspan x="0" y="0" class="st13 st14 st12">30</tspan><tspan x="-2.9" y="10.18" class="st13 st14 st12">LAT</tspan></text>
	<text transform="matrix(1 0 0 1 120.6863 75.2783)"><tspan x="0" y="0" class="st13 st14 st12">10</tspan><tspan x="-2.9" y="10.18" class="st13 st14 st12">LAT</tspan></text>
	<text transform="matrix(1 0 0 1 465.0061 415.2505)"><tspan x="0" y="0" class="st13 st14 st12">50</tspan><tspan x="-2.9" y="10.18" class="st13 st14 st12">LAT</tspan></text>
	<text transform="matrix(1 0 0 1 120.6863 415.2505)"><tspan x="0" y="0" class="st13 st14 st12">70</tspan><tspan x="-2.9" y="10.18" class="st13 st14 st12">LAT</tspan></text>
	<g>
		<line class="st15" x1="297.45" y1="248.24" x2="259.7" y2="210.5"/>
		<path class="st15" d="M295.81,248.24l-36.1-36.1c-0.45-0.45-0.45-1.19,0-1.64l0,0c0.45-0.45,1.19-0.45,1.64,0l36.1,36.1
			c0.45,0.45,0.45,1.19,0,1.64l0,0C297,248.7,296.26,248.7,295.81,248.24z"/>
	</g>
	<g>
		<line class="st15" x1="245.18" y1="195.98" x2="208" y2="158.8"/>
		<path class="st15" d="M243.54,195.98L208,160.44c-0.45-0.45-0.45-1.19,0-1.64v0c0.45-0.45,1.19-0.45,1.64,0l35.54,35.54
			c0.45,0.45,0.45,1.19,0,1.64l0,0C244.73,196.43,243.99,196.43,243.54,195.98z"/>
	</g>
	<g>
		<line class="st15" x1="218.38" y1="169.17" x2="181.2" y2="131.99"/>
		<path class="st15" d="M216.74,169.17l-35.54-35.54c-0.45-0.45-0.45-1.19,0-1.64l0,0c0.45-0.45,1.19-0.45,1.64,0l35.54,35.54
			c0.45,0.45,0.45,1.19,0,1.64l0,0C217.93,169.63,217.19,169.63,216.74,169.17z"/>
	</g>
	<g>
		<line class="st15" x1="199.58" y1="150.37" x2="162.4" y2="113.19"/>
		<path class="st15" d="M197.94,150.37l-35.54-35.54c-0.45-0.45-0.45-1.19,0-1.64v0c0.45-0.45,1.19-0.45,1.64,0l35.54,35.54
			c0.45,0.45,0.45,1.19,0,1.64l0,0C199.12,150.83,198.39,150.83,197.94,150.37z"/>
	</g>
	<path class="st16" d="M263.29,192.55c-0.23-0.23-0.53-0.35-0.85-0.35c0,0,0,0,0,0l-4.27,0c-0.33,0-0.63,0.13-0.86,0.36
		c-0.23,0.23-0.36,0.54-0.35,0.86c0,0,0,0,0,0c0,0.33,0.13,0.63,0.36,0.86c0.23,0.23,0.53,0.35,0.86,0.35c0,0,0,0,0.01,0l1.32-0.01
		l-2.2,2.2c-1.39-1.01-3.1-1.52-4.83-1.46c-1.9,0.07-3.69,0.85-5.06,2.19c-1.37,1.34-2.19,3.11-2.31,5.01
		c-0.14,2.22,0.68,4.38,2.24,5.95c1.45,1.45,3.41,2.26,5.46,2.26c0.16,0,0.33-0.01,0.49-0.02c1.89-0.12,3.67-0.94,5.01-2.31
		c1.34-1.37,2.11-3.17,2.19-5.06c0.07-1.73-0.45-3.43-1.46-4.83l2.2-2.2l-0.01,1.32c0,0.33,0.12,0.63,0.35,0.86
		c0.23,0.23,0.53,0.36,0.86,0.36c0,0,0,0,0,0c0.32,0,0.63-0.13,0.86-0.35c0.23-0.23,0.36-0.54,0.36-0.86l0-4.27
		C263.64,193.08,263.52,192.77,263.29,192.55z M258.15,203.06c0,2.96-2.41,5.37-5.37,5.37c-2.96,0-5.37-2.41-5.37-5.37
		c0-2.96,2.41-5.37,5.37-5.37C255.74,197.68,258.15,200.09,258.15,203.06z"/>
	<path class="st17" d="M341.54,193.98c-2,0.05-3.88,0.86-5.31,2.29c-1.43,1.43-2.24,3.31-2.29,5.31c-0.09,3.91,2.71,7.27,6.56,7.88
		v2.13h-0.75c-0.68,0-1.23,0.55-1.23,1.23c0,0.68,0.55,1.23,1.23,1.23h0.75v0.86c0,0.68,0.55,1.23,1.23,1.23
		c0.68,0,1.23-0.55,1.23-1.23v-0.86h0.75c0.68,0,1.23-0.55,1.23-1.23c0-0.68-0.55-1.23-1.23-1.23h-0.75v-2.13
		c3.75-0.6,6.56-3.87,6.56-7.69c0-2.12-0.83-4.1-2.35-5.57C345.66,194.71,343.66,193.93,341.54,193.98z M347.16,201.77
		c0,3-2.44,5.43-5.43,5.43c-3,0-5.43-2.44-5.43-5.43c0-3,2.44-5.43,5.43-5.43C344.73,196.33,347.16,198.77,347.16,201.77z"/>
	<g>
		<line class="st17" x1="297.45" y1="248.24" x2="335.19" y2="210.5"/>
		<path class="st17" d="M297.45,248.24L297.45,248.24c-0.45-0.45-0.45-1.19,0-1.64l36.1-36.1c0.45-0.45,1.19-0.45,1.64,0l0,0
			c0.45,0.45,0.45,1.19,0,1.64l-36.1,36.1C298.64,248.7,297.9,248.7,297.45,248.24z"/>
	</g>
	<g>
		<line class="st17" x1="349.72" y1="195.98" x2="386.89" y2="158.8"/>
		<path class="st17" d="M349.72,195.98L349.72,195.98c-0.45-0.45-0.45-1.19,0-1.64l35.54-35.54c0.45-0.45,1.19-0.45,1.64,0v0
			c0.45,0.45,0.45,1.19,0,1.64l-35.54,35.54C350.9,196.43,350.17,196.43,349.72,195.98z"/>
	</g>
	<g>
		<line class="st17" x1="378.21" y1="167.49" x2="415.39" y2="130.31"/>
		<path class="st17" d="M378.21,167.49L378.21,167.49c-0.45-0.45-0.45-1.19,0-1.64l35.54-35.54c0.45-0.45,1.19-0.45,1.64,0l0,0
			c0.45,0.45,0.45,1.19,0,1.64l-35.54,35.54C379.39,167.94,378.66,167.94,378.21,167.49z"/>
	</g>
	<g>
		<line class="st17" x1="395.45" y1="150.24" x2="432.63" y2="113.06"/>
		<path class="st17" d="M395.45,150.24L395.45,150.24c-0.45-0.45-0.45-1.19,0-1.64l35.54-35.54c0.45-0.45,1.19-0.45,1.64,0l0,0
			c0.45,0.45,0.45,1.19,0,1.64l-35.54,35.54C396.64,150.7,395.9,150.7,395.45,150.24z"/>
	</g>
	<line class="st18" x1="433.22" y1="384.02" x2="297.45" y2="248.24"/>
	<line class="st19" x1="161.68" y1="384.02" x2="297.45" y2="248.24"/>
	<g>
		<line class="st20" x1="297.45" y1="384.33" x2="297.45" y2="112.47"/>
		<line class="st20" x1="161.68" y1="248.24" x2="433.53" y2="248.24"/>
		<line class="st20" x1="365.47" y1="316" x2="297.56" y2="383.91"/>
		<line class="st20" x1="433.16" y1="248.31" x2="365.25" y2="316.22"/>
		<rect x="161.68" y="112.47" class="st20" width="271.55" height="271.55"/>
		
			<rect x="161.68" y="112.47" transform="matrix(0.7071 0.7071 -0.7071 0.7071 262.6558 -137.6196)" class="st20" width="271.55" height="271.55"/>
	</g>
	<g>
		<circle class="st21" cx="155.14" cy="390.55" r="21.72"/>
	</g>
	<g>
		<circle class="st21" cx="155.14" cy="105.93" r="21.72"/>
	</g>
	<g>
		<circle class="st21" cx="439.76" cy="390.55" r="21.72"/>
		<circle class="st21" cx="365.47" cy="316.26" r="10.86"/>
		<circle class="st21" cx="331.48" cy="350.26" r="10.86"/>
		<circle class="st21" cx="399.33" cy="282.4" r="10.86"/>
	</g>
	<g>
		<circle class="st21" cx="439.76" cy="105.93" r="21.72"/>
	</g>
	<circle class="st21" cx="96.19" cy="248.24" r="21.72"/>
	<circle class="st21" cx="161.36" cy="248.24" r="10.86"/>
	<circle class="st21" cx="134.21" cy="248.24" r="16.29"/>
	<circle class="st21" cx="297.45" cy="46.99" r="21.72"/>
	<circle class="st21" cx="297.45" cy="112.16" r="10.86"/>
	<circle class="st21" cx="297.45" cy="85" r="16.29"/>
	<circle class="st21" cx="297.45" cy="449.5" r="21.72"/>
	<circle class="st21" cx="297.45" cy="384.33" r="10.86"/>
	<circle class="st21" cx="297.45" cy="411.48" r="16.29"/>
	<circle class="st21" cx="498.71" cy="248.24" r="21.72"/>
	<circle class="st21" cx="433.53" cy="248.24" r="10.86"/>
	<circle class="st21" cx="460.69" cy="248.24" r="16.29"/>
	<circle class="st21" cx="297.45" cy="248.24" r="21.72"/>
</g>
<circle class="st1" cx="504.45" cy="822.99" r="7.83"/>
<g>
</g>
<g>
</g>
<g>
</g>
<g>
</g>
<g>
</g>
<g>
</g>
</svg>
